Coordinates
version=1
nRows=13
nColumns=40
inDegrees=yes

Units are S.I. units (second, meters, Newtons, ...)
Angles are in degrees.

endheader
time	pelvis_tilt	pelvis_list	pelvis_rotation	pelvis_tx	pelvis_ty	pelvis_tz	hip_flexion_r	hip_adduction_r	hip_rotation_r	knee_angle_r	knee_angle_r_beta	ankle_angle_r	subtalar_angle_r	mtp_angle_r	hip_flexion_l	hip_adduction_l	hip_rotation_l	knee_angle_l	knee_angle_l_beta	ankle_angle_l	subtalar_angle_l	mtp_angle_l	lumbar_extension	lumbar_bending	lumbar_rotation	arm_flex_r	arm_add_r	arm_rot_r	elbow_flex_r	pro_sup_r	wrist_flex_r	wrist_dev_r	arm_flex_l	arm_add_l	arm_rot_l	elbow_flex_l	pro_sup_l	wrist_flex_l	wrist_dev_l
     36.97000000	     -4.79553993	     -3.39381912	      8.82554958	      0.91792123	      0.92123293	      0.47984694	      3.98190469	      1.23841535	    -15.34488736	     16.32413042	     16.32413042	     18.26678822	     -5.78895118	     -2.20971146	     27.02069055	     -4.30258231	      1.39108348	     19.77747241	     19.77747241	      3.45079734	     -4.97199215	     -1.49933988	     -7.05136898	      3.27584974	      2.19714303	     52.72038362	    -19.64786057	    -11.72609867	     91.92757378	     44.55316388	      0.00000000	      0.00000000	    -12.55600503	     -7.31792896	      4.86093676	     27.74561151	     45.13515391	      0.00000000	      0.00000000
     36.98785714	     -4.86807198	     -3.29483877	      8.78530964	      0.91869965	      0.92069611	      0.47668218	      3.55926633	      0.97931996	    -15.27404181	     16.26263167	     16.26263167	     18.41898181	     -5.79490672	     -2.17692661	     26.96681893	     -4.06176850	      1.40006692	     20.50624485	     20.50624485	      3.50343298	     -5.39690272	     -1.70937014	     -6.97906397	      2.99607689	      2.15935541	     52.81989354	    -19.35706417	    -11.65317189	     92.18589254	     44.54520679	      0.00000000	      0.00000000	    -11.90441665	     -7.31740289	      4.85133430	     27.94414000	     45.14987531	      0.00000000	      0.00000000
     37.00571429	     -4.88320766	     -3.25702093	      8.67928689	      0.91956623	      0.92030263	      0.47352339	      3.08039920	      0.78472220	    -15.19393619	     16.19532406	     16.19532406	     18.52562809	     -5.72279634	     -2.11813433	     26.92266527	     -3.88687854	      1.52942718	     21.37211143	     21.37211143	      3.69050036	     -6.03127642	     -1.93171649	     -6.95330851	      2.82434102	      2.11681576	     52.73720457	    -18.98189253	    -11.59801936	     92.56217680	     44.53335938	      0.00000000	      0.00000000	    -11.22990516	     -7.34360751	      4.80732300	     28.17810196	     45.17035198	      0.00000000	      0.00000000
     37.02357143	     -4.96827275	     -3.24749446	      8.53147689	      0.92048594	      0.92000780	      0.47034593	      2.66179405	      0.60529205	    -15.09810958	     16.08035985	     16.08035985	     18.55319082	     -5.58786143	     -2.04114367	     26.85996473	     -3.71640978	      1.68330384	     22.07110199	     22.07110199	      4.04604030	     -6.65205683	     -2.13002944	     -6.89990943	      2.71046669	      2.07152782	     52.46478056	    -18.61796229	    -11.54169827	     92.83536813	     44.52337296	      0.00000000	      0.00000000	    -10.46356253	     -7.36804392	      4.74648266	     28.48762750	     45.19413257	      0.00000000	      0.00000000
     37.04142857	     -5.00382791	     -3.35925297	      8.37929460	      0.92140128	      0.91995837	      0.46705078	      2.11001050	      0.51595934	    -15.41242907	     15.82577621	     15.82577621	     18.78822284	     -4.65360857	     -1.18644282	     26.88784916	     -3.45633025	      2.67878440	     22.99150028	     22.99150028	      4.37757153	     -8.67101887	     -1.32109833	     -6.95176990	      2.73223439	      2.83452558	     51.02780721	    -18.86868117	    -12.88779035	     95.49907793	     44.52067167	      0.00000000	      0.00000000	     -9.55594659	     -7.30910766	      3.21704755	     29.56580257	     45.47209692	      0.00000000	      0.00000000
     37.05928571	     -5.10481485	     -3.34740689	      8.09080416	      0.92225933	      0.92004060	      0.46405116	      1.73401385	      0.31797498	    -15.26861640	     15.71225216	     15.71225216	     18.66462000	     -4.46539116	     -1.09130132	     26.72193946	     -3.33022560	      2.69514451	     23.44874360	     23.44874360	      4.79482452	     -9.07307641	     -1.47131874	     -6.87387139	      2.63146474	      2.89177955	     50.46409213	    -18.43462058	    -12.70846159	     95.34177034	     44.51924405	      0.00000000	      0.00000000	     -8.58931176	     -7.37924900	      3.13238314	     29.96786611	     45.50132790	      0.00000000	      0.00000000
     37.07714286	     -5.11840914	     -3.42137204	      7.78914078	      0.92317531	      0.92046680	      0.46095521	      1.11858119	      0.18038894	    -15.55826824	     15.33053486	     15.33053486	     18.57317683	     -3.38574045	     -0.65662894	     26.51639529	     -3.17351018	      3.14666658	     24.01457250	     24.01457250	      5.52915181	    -10.17462591	     -0.32697048	     -6.84473188	      2.61645127	      3.31731840	     49.35974561	    -18.39206507	    -13.28396118	     95.00158264	     44.57738012	      0.00000000	      0.00000000	     -7.87405919	     -7.39706520	      1.52268974	     31.57928599	     45.75771891	      0.00000000	      0.00000000
     37.09500000	     -5.21871989	     -3.50452919	      7.38544304	      0.92382346	      0.92080245	      0.45821535	      0.83628355	      0.05369922	    -15.39539380	     15.30962439	     15.30962439	     18.31509706	     -3.11291146	     -0.55984781	     26.31351280	     -3.18468860	      3.06298313	     24.34692878	     24.34692878	      6.00832464	    -10.55951093	     -0.42672396	     -6.79430766	      2.65171737	      3.43885538	     48.47863426	    -17.90657152	    -13.07950333	     94.57255168	     44.58317629	      0.00000000	      0.00000000	     -6.83146462	     -7.51423496	      1.35739049	     32.11492961	     45.79778796	      0.00000000	      0.00000000
     37.11285714	     -5.29394903	     -3.61424843	      6.98368000	      0.92445255	      0.92136549	      0.45547554	      0.46979302	     -0.07919979	    -15.49573524	     15.17594151	     15.17594151	     18.03931836	     -2.28656574	     -0.46921195	     26.04345518	     -3.18854269	      3.09942833	     24.60064086	     24.60064086	      6.57332595	    -11.06622643	      0.05232090	     -6.66289768	      2.69362249	      3.92823801	     47.34069522	    -17.99427651	    -13.41240266	     92.92852009	     44.65498546	      0.00000000	      0.00000000	     -5.91777615	     -7.63650654	      0.43459794	     33.66259494	     45.93949371	      0.00000000	      0.00000000
     37.13071429	     -5.37580373	     -3.74413403	      6.53630822	      0.92480143	      0.92196305	      0.45296114	      0.32528275	     -0.19414963	    -15.30397161	     15.37502864	     15.37502864	     17.70358915	     -2.01040281	     -0.42416068	     25.72434614	     -3.27958819	      2.94973756	     24.70745469	     24.70745469	      6.98680983	    -11.34635798	      0.01197859	     -6.70489572	      2.82168872	      3.94183486	     46.32992838	    -17.39340960	    -13.18345772	     92.39633785	     44.66161344	      0.00000000	      0.00000000	     -4.74879179	     -7.85995942	      0.27253441	     34.27906464	     45.97900912	      0.00000000	      0.00000000
     37.14857143	     -5.48864104	     -3.72839448	      6.04554131	      0.92511170	      0.92266257	      0.45040142	      0.31516959	     -0.58457709	    -15.42107355	     15.82162808	     15.82162808	     17.45310722	     -1.22400951	     -0.64481311	     25.31629303	     -3.21742012	      2.70839535	     24.65430553	     24.65430553	      7.52462365	    -11.60117058	      0.54231724	     -6.54939885	      2.70508088	      4.43886737	     45.04115799	    -17.40967712	    -13.63209690	     89.53556473	     44.77416821	      0.00000000	      0.00000000	     -3.90617126	     -8.05083395	     -0.75510127	     36.29596845	     46.12494670	      0.00000000	      0.00000000
     37.16642857	     -5.49367298	     -3.89778531	      5.61781244	      0.92527240	      0.92348905	      0.44800790	      0.21834394	     -0.68447768	    -15.22736113	     16.21984060	     16.21984060	     17.09538930	     -0.98070107	     -0.67050340	     24.87191422	     -3.36697499	      2.51950344	     24.65018483	     24.65018483	      7.87898060	    -11.80193700	      0.55113384	     -6.66518215	      2.94064715	      4.36628374	     43.73021621	    -16.68054367	    -13.36911869	     88.71815624	     44.78756837	      0.00000000	      0.00000000	     -2.68647233	     -8.36483995	     -0.94881429	     36.97803756	     46.16714682	      0.00000000	      0.00000000
     37.18428571	     -5.59079547	     -3.80425738	      5.13730665	      0.92528855	      0.92424200	      0.44551623	      0.43861710	     -1.22747862	    -15.27928042	     17.07856349	     17.07856349	     16.62017840	     -0.45364385	     -1.78374802	     24.40491015	     -3.24396553	      2.13592945	     24.52650816	     24.52650816	      8.65366576	    -11.73041339	      1.68415671	     -6.52574959	      2.73269091	      3.36029325	     43.70248149	    -15.11572060	    -13.08802620	     82.96360985	     44.99517994	      0.00000000	      0.00000000	     -3.00952305	     -8.60197440	     -3.46114079	     40.26502540	     46.44865305	      0.00000000	      0.00000000
